<?xml version="1.0" encoding="utf-8"?>
<!-- Generator: Adobe Illustrator 19.2.0, SVG Export Plug-In . SVG Version: 6.00 Build 0)  -->
<svg version="1.1" xmlns="http://www.w3.org/2000/svg" xmlns:xlink="http://www.w3.org/1999/xlink" x="0px" y="0px"
	 viewBox="0 0 216 216" style="enable-background:new 0 0 216 216;" xml:space="preserve">
<style type="text/css">
	.st0{fill:#FFFFFF;}
	.st1{fill:none;stroke:#000000;stroke-miterlimit:10;}
	.st2{fill:url(#SVGID_1_);}
	.st3{fill:url(#SVGID_2_);}
	.st4{font-family:'OldEnglishTextMT';}
	.st5{font-size:14px;}
</style>
<g id="Layer_1">
	<g>
		<g>
			<g>
				<g>
					<g>
						<g>
							<g>
								<g>
									<g>
										<g>
											<path d="M126,53c1.8-0.6,2.9-1.9,3-3.4c-1-0.5-2.1-0.7-3.2-0.8c-1.1-0.1-2.1,0.1-3.1,0.4c-1.9,0.7-2.7,2.2-2.6,3.6
												c0.5,0.2,1,0.3,1.5,0.3c0.5,0.1,1,0.2,1.5,0.2C124.1,53.5,125.1,53.4,126,53z"/>
											<path class="st0" d="M127,51.2c1.1-0.3,1.8-0.9,2-1.5c-0.9-0.3-2.1-0.3-3.2,0.1c-1.1,0.3-1.7,1-1.9,1.6
												C124.8,51.5,125.9,51.5,127,51.2z"/>
										</g>
										<g>
											<path d="M128.4,44.8c1.4,1.5,1.6,3.2,0.7,4.5c-1.1-0.2-2.2-0.5-3.1-1c-1-0.5-1.9-1.1-2.6-1.8c-1.5-1.4-1.9-3-1.2-4.4
												c0.6,0,1.2,0.1,1.8,0.3c0.6,0.2,1.2,0.4,1.7,0.6C126.7,43.4,127.7,44.1,128.4,44.8z"/>
											<path class="st0" d="M128.2,46.9c0.8,0.9,1,1.7,0.9,2.4c-0.9-0.3-1.9-0.9-2.7-1.8c-0.8-0.9-1.1-1.7-1-2.3
												C126.4,45.4,127.5,46.1,128.2,46.9z"/>
										</g>
									</g>
								</g>
								<g>
									<g>
										<g>
											<path d="M133.1,55.8c1.9-0.4,3.3-1.6,3.5-3.1c-1.9-1.2-4.4-1.8-6.4-1.2c-2,0.5-3.1,1.9-3.2,3.4c0.9,0.5,2,0.8,3,0.9
												C131.1,56.1,132.1,56,133.1,55.8z"/>
											<path class="st0" d="M134.4,54c1.1-0.2,2-0.7,2.3-1.3c-0.9-0.4-2.1-0.6-3.3-0.3c-1.1,0.2-1.9,0.8-2.2,1.4
												C132.1,54.2,133.3,54.2,134.4,54z"/>
										</g>
										<g>
											<path d="M136.7,47.6c1.3,1.8,1.2,3.6,0.1,4.8c-2.2-0.7-4.2-2-5.6-3.7c-1.3-1.7-1.5-3.5-0.7-4.7c1.2,0.3,2.4,0.7,3.5,1.4
												C135.2,45.9,136.1,46.7,136.7,47.6z"/>
											<path class="st0" d="M136.3,49.8c0.7,1,0.8,2,0.6,2.6c-0.9-0.4-1.8-1.3-2.5-2.2c-0.7-1-0.9-1.9-0.7-2.6
												C134.6,48,135.6,48.7,136.3,49.8z"/>
										</g>
									</g>
								</g>
								<g>
									<g>
										<g>
											<path d="M140,59.7c2.1-0.1,3.6-1.2,4.1-2.7c-0.5-0.4-0.9-0.7-1.5-1c-0.5-0.3-1.1-0.5-1.6-0.7c-1.1-0.4-2.3-0.5-3.3-0.4
												c-2.1,0.2-3.4,1.6-3.8,3.2c0.9,0.6,1.9,1.1,2.9,1.3C137.9,59.6,139,59.8,140,59.7z"/>
											<path class="st0" d="M141.6,58c1.2,0,2.1-0.4,2.5-1c-0.9-0.6-2.1-0.9-3.4-0.8c-1.2,0.1-2.1,0.5-2.4,1.1
												C139.2,57.8,140.4,58,141.6,58z"/>
										</g>
										<g>
											<path d="M144.9,51.6c1,2.1,0.7,3.9-0.6,5c-0.5-0.3-1.1-0.6-1.6-0.9c-0.5-0.3-1-0.7-1.4-1.1c-0.9-0.8-1.7-1.7-2.2-2.7
												c-1.1-2-1.1-3.8,0-5c1.3,0.4,2.4,1.1,3.4,1.9C143.6,49.6,144.4,50.6,144.9,51.6z"/>
											<path class="st0" d="M144.2,53.8c0.5,1.2,0.6,2.2,0.2,2.8c-0.9-0.6-1.7-1.6-2.3-2.7c-0.6-1.1-0.7-2.1-0.4-2.8
												C142.7,51.7,143.6,52.7,144.2,53.8z"/>
										</g>
									</g>
								</g>
								<g>
									<g>
										<g>
											<path d="M146.6,64.7c2.2,0.1,3.9-0.7,4.7-2.2c-1.6-1.9-4.1-3.1-6.3-3.1c-2.3,0-3.8,1.2-4.3,2.8
												C142.3,63.5,144.4,64.5,146.6,64.7z"/>
											<path class="st0" d="M148.5,63.1c1.2,0.1,2.3-0.1,2.8-0.7c-0.4-0.4-0.9-0.7-1.5-0.9c-0.6-0.2-1.2-0.4-1.9-0.4
												c-1.3-0.1-2.2,0.3-2.7,0.9C146,62.6,147.2,63,148.5,63.1z"/>
										</g>
										<g>
											<path d="M152.9,57c0.8,2.3,0.1,4.1-1.3,5.1c-2-1.4-3.8-3.4-4.7-5.6c-0.9-2.2-0.6-4.1,0.7-5.2
												C150.1,52.5,152.1,54.7,152.9,57z"/>
											<path class="st0" d="M151.8,59.1c0.4,1.3,0.2,2.3-0.2,2.9c-0.4-0.4-0.8-0.8-1.1-1.4c-0.3-0.5-0.6-1.1-0.8-1.7
												c-0.4-1.3-0.4-2.3,0-2.9C150.5,56.7,151.4,57.9,151.8,59.1z"/>
										</g>
									</g>
								</g>
								<g>
									<g>
										<g>
											<path d="M152.6,70.7c2.2,0.5,4.1-0.1,5.2-1.6c-0.4-0.5-0.8-1.1-1.2-1.5c-0.5-0.5-1-0.9-1.5-1.2c-1-0.8-2.2-1.2-3.4-1.4
												c-2.3-0.3-4.1,0.7-4.9,2.3C148.3,68.9,150.3,70.3,152.6,70.7z"/>
											<path class="st0" d="M154.8,69.4c1.3,0.3,2.4,0.2,3-0.3c-0.4-0.4-0.9-0.8-1.4-1.2c-0.6-0.3-1.2-0.6-1.9-0.7
												c-1.3-0.3-2.4,0-2.9,0.5C152.3,68.5,153.5,69.1,154.8,69.4z"/>
										</g>
										<g>
											<path d="M160.3,63.7c0.4,2.5-0.5,4.3-2.2,5.1c-0.5-0.4-0.9-0.9-1.3-1.4c-0.4-0.5-0.8-1-1.2-1.6c-0.7-1.1-1.2-2.2-1.5-3.5
												c-0.6-2.4,0-4.3,1.5-5.3C158.1,58.6,159.9,61.2,160.3,63.7z"/>
											<path class="st0" d="M158.8,65.8c0.2,1.4-0.1,2.5-0.7,3c-0.4-0.4-0.7-1-0.9-1.6c-0.3-0.6-0.5-1.2-0.6-1.9
												c-0.2-1.4,0-2.5,0.5-3C157.9,63.1,158.6,64.4,158.8,65.8z"/>
										</g>
									</g>
								</g>
								<g>
									<g>
										<g>
											<path d="M157.8,77.9c2.2,0.8,4.3,0.5,5.6-0.9c-1.1-2.5-3.2-4.5-5.6-5.2c-2.4-0.7-4.4,0.1-5.5,1.6
												C153.7,75.4,155.5,77.1,157.8,77.9z"/>
											<path class="st0" d="M160.3,76.8c1.3,0.5,2.4,0.5,3.1,0.1c-0.7-1-1.8-2-3.1-2.4c-1.3-0.5-2.4-0.4-3.1,0.1
												C157.9,75.5,159,76.3,160.3,76.8z"/>
										</g>
										<g>
											<path d="M167,71.7c0,2.7-1.3,4.4-3.1,4.9c-1.7-2.1-2.9-4.7-3.1-7.3c-0.2-2.6,0.7-4.5,2.4-5.3c1.1,1,2,2.3,2.7,3.6
												C166.6,69,166.9,70.4,167,71.7z"/>
											<path class="st0" d="M165.1,73.7c0,1.5-0.5,2.5-1.2,3c-0.6-1-1-2.5-1-3.9c0-1.4,0.4-2.6,1-3.1
												C164.5,70.8,165.1,72.2,165.1,73.7z"/>
										</g>
									</g>
								</g>
								<g>
									<g>
										<g>
											<path d="M162,86c2.2,1.2,4.4,1.2,6-0.1c-0.8-2.7-2.6-5.2-5-6.3c-2.3-1.1-4.5-0.6-5.9,0.8c0.5,1.1,1.1,2.2,2,3.1
												C159.9,84.6,160.9,85.4,162,86z"/>
											<path class="st0" d="M164.8,85.3c1.2,0.7,2.4,0.9,3.3,0.6c-0.5-1.1-1.5-2.3-2.8-3c-1.3-0.7-2.5-0.8-3.3-0.4
												C162.5,83.6,163.5,84.6,164.8,85.3z"/>
										</g>
										<g>
											<path d="M172.5,81.2c-0.4,2.8-2,4.3-4,4.6c-1.4-2.4-2.2-5.3-2-8c0.2-2.7,1.4-4.5,3.4-5.1c1,1.2,1.7,2.7,2.2,4.1
												C172.5,78.3,172.8,79.8,172.5,81.2z"/>
											<path class="st0" d="M170.2,82.9c-0.2,1.5-0.9,2.5-1.7,2.9c-0.5-1.2-0.6-2.7-0.4-4.2c0.2-1.5,0.8-2.6,1.5-3
												C170.2,79.8,170.5,81.4,170.2,82.9z"/>
										</g>
									</g>
								</g>
								<g>
									<g>
										<g>
											<path d="M164.9,95c2.1,1.5,4.3,1.9,6.2,1c-0.1-1.5-0.6-2.9-1.3-4.2c-0.7-1.3-1.6-2.3-2.8-3.1c-2.3-1.5-4.6-1.3-6.3-0.1
												C161.5,91.2,162.9,93.5,164.9,95z"/>
											<path class="st0" d="M167.9,94.8c1.2,0.9,2.3,1.4,3.2,1.2c-0.3-1.3-1.2-2.6-2.4-3.5c-1.2-0.9-2.4-1.2-3.3-0.9
												C165.9,92.6,166.8,93.9,167.9,94.8z"/>
										</g>
										<g>
											<path d="M176.7,91.8c-0.9,2.8-2.9,4.1-5,4c-0.5-1.4-0.9-2.8-1-4.3c-0.2-1.4-0.1-2.9,0.3-4.3c0.6-2.7,2.3-4.5,4.4-4.7
												C177,85.4,177.7,89,176.7,91.8z"/>
											<path class="st0" d="M174.1,93.2c-0.5,1.5-1.4,2.4-2.3,2.7c-0.2-1.3-0.2-2.9,0.3-4.4c0.5-1.5,1.2-2.5,2.1-2.9
												C174.6,90,174.6,91.7,174.1,93.2z"/>
										</g>
									</g>
								</g>
								<g>
									<g>
										<g>
											<path d="M166.4,104.8c1.8,1.9,4.2,2.7,6.3,2.1c0.2-3-0.8-6.2-2.9-8.1c-2.1-1.9-4.5-2.1-6.5-1.1
												C163.6,100.2,164.5,102.8,166.4,104.8z"/>
											<path class="st0" d="M169.5,105c1,1.2,2.2,1.8,3.2,1.8c-0.1-1.3-0.7-2.9-1.8-4c-1.1-1.2-2.3-1.7-3.2-1.5
												C167.8,102.5,168.5,103.9,169.5,105z"/>
										</g>
										<g>
											<path d="M179.2,103.5c-1.5,2.7-3.7,3.7-5.9,3.3c-0.6-3-0.4-6.2,0.8-8.9c1.2-2.7,3.1-4.2,5.4-4.1
												C180.7,97,180.6,100.8,179.2,103.5z"/>
											<path class="st0" d="M176.2,104.5c-0.8,1.5-1.9,2.3-2.9,2.3c-0.1-1.4,0.3-3,1.1-4.4c0.8-1.4,1.8-2.4,2.7-2.6
												C177.3,101.2,177,103,176.2,104.5z"/>
										</g>
									</g>
								</g>
								<g>
									<g>
										<g>
											<path d="M166.2,115c0.4,0.6,0.8,1.1,1.3,1.5c0.5,0.4,1,0.8,1.5,1.1c1,0.6,2.2,0.8,3.4,0.7c0.2-0.8,0.3-1.6,0.4-2.4
												c0-0.8,0-1.6-0.1-2.4c-0.3-1.5-0.8-3-1.8-4.2c-1.8-2.3-4.3-2.9-6.5-2.3C164,109.8,164.6,112.7,166.2,115z"/>
											<path class="st0" d="M169.4,115.8c0.9,1.4,1.9,2.3,2.9,2.4c0.2-1.4-0.3-3.1-1.1-4.5c-0.9-1.4-2.1-2.1-3.1-2.2
												c0,0.6,0.1,1.4,0.4,2.1C168.6,114.4,168.9,115.1,169.4,115.8z"/>
										</g>
										<g>
											<path d="M179.7,116c-0.5,0.6-1,1.2-1.5,1.6c-0.6,0.4-1.1,0.7-1.7,0.9c-1.2,0.4-2.3,0.3-3.4-0.1c0-0.8,0.1-1.6,0.1-2.4
												c0.1-0.8,0.3-1.6,0.5-2.4c0.4-1.5,1-3,1.9-4.3c1.7-2.6,4-3.8,6.3-3.3C182.4,109.6,181.7,113.5,179.7,116z"/>
											<path class="st0" d="M176.4,116.4c-1.1,1.4-2.4,2-3.4,1.9c0.2-1.4,0.8-3,1.9-4.4c1-1.4,2.2-2.1,3.2-2.2
												c0,0.8-0.2,1.6-0.5,2.4C177.3,115,176.9,115.8,176.4,116.4z"/>
										</g>
									</g>
								</g>
								<g>
									<g>
										<g>
											<path d="M164.1,125.3c1.2,2.6,3.3,4.4,5.8,4.5c1.4-3,1.5-6.7,0.1-9.4c-1.5-2.7-3.9-3.8-6.4-3.6
												C162.8,119.7,162.9,122.7,164.1,125.3z"/>
											<path class="st0" d="M167.2,126.8c0.6,1.6,1.6,2.7,2.6,3c0.2-0.7,0.3-1.5,0.2-2.3c0-0.8-0.2-1.7-0.6-2.5
												c-0.7-1.6-1.8-2.5-2.8-2.8C166.4,123.6,166.6,125.3,167.2,126.8z"/>
										</g>
										<g>
											<path d="M177.8,129c-2.5,2.3-5.3,2.4-7.4,1.1c0.6-3.3,2-6.5,4.2-8.8c2.2-2.3,4.8-3.2,7.1-2.2
												C181.9,122.8,180.3,126.7,177.8,129z"/>
											<path class="st0" d="M174.3,128.8c-1.4,1.2-2.8,1.6-3.9,1.3c0.3-0.7,0.6-1.4,1.1-2.1c0.5-0.7,1.1-1.4,1.7-2
												c1.3-1.2,2.7-1.8,3.8-1.6C176.7,125.9,175.8,127.6,174.3,128.8z"/>
										</g>
									</g>
								</g>
								<g>
									<g>
										<g>
											<path d="M159.9,135.4c0.7,2.9,2.5,5.1,5,5.8c2.1-2.8,2.9-6.5,1.9-9.6c-1-3.1-3.3-4.6-5.9-4.9
												C159.7,129.4,159.2,132.5,159.9,135.4z"/>
											<path class="st0" d="M162.9,137.6c0.4,1.7,1.1,3.1,2.1,3.6c0.4-0.7,0.6-1.5,0.7-2.3c0.1-0.8,0.1-1.8-0.1-2.6
												c-0.4-1.8-1.3-3-2.4-3.4c-0.2,0.7-0.4,1.4-0.5,2.2C162.7,135.9,162.7,136.7,162.9,137.6z"/>
										</g>
										<g>
											<path d="M173.4,142c-3.1,1.8-5.9,1.3-7.8-0.4c1.2-3.2,3.3-6.2,6.1-8.2c2.7-1.9,5.6-2.3,7.8-0.9
												C178.8,136.5,176.4,140.2,173.4,142z"/>
											<path class="st0" d="M169.8,141.1c-1.7,0.9-3.2,1-4.2,0.5c0.4-0.7,0.9-1.3,1.5-2c0.6-0.6,1.4-1.2,2.2-1.7
												c1.6-0.9,3.2-1.3,4.2-0.9c-0.3,0.8-0.8,1.5-1.5,2.2C171.4,140,170.7,140.6,169.8,141.1z"/>
										</g>
									</g>
								</g>
								<g>
									<g>
										<g>
											<path d="M153.6,144.8c0.2,3.2,1.5,5.8,4,7c2.7-2.4,4.3-6.1,3.9-9.4c-0.4-3.4-2.5-5.4-5.1-6.2
												C154.6,138.7,153.5,141.7,153.6,144.8z"/>
											<path class="st0" d="M156.3,147.7c0,1.9,0.5,3.4,1.4,4.2c0.5-0.6,0.9-1.4,1.2-2.2c0.3-0.9,0.5-1.8,0.4-2.7
												c-0.1-1.9-0.8-3.3-1.7-4C156.7,144.1,156.3,145.8,156.3,147.7z"/>
										</g>
										<g>
											<path d="M166.2,154.4c-3.5,1.2-6.4,0.1-8-2.1c1.9-3,4.7-5.7,7.9-7.1c3.2-1.4,6.3-1.2,8.2,0.7
												C172.9,149.9,169.7,153.2,166.2,154.4z"/>
											<path class="st0" d="M162.7,152.7c-1.9,0.6-3.6,0.3-4.5-0.4c0.5-0.6,1.2-1.2,2-1.7c0.8-0.5,1.7-0.9,2.6-1.2
												c1.8-0.6,3.5-0.6,4.5,0C166.3,150.8,164.6,152.1,162.7,152.7z"/>
										</g>
									</g>
								</g>
								<g>
									<g>
										<g>
											<path d="M145.3,153c-0.5,3.2,0.4,6.3,2.6,8.1c3.3-1.8,5.7-5.2,5.9-8.7c0.3-3.5-1.5-6.1-4-7.4
												C147.5,147,145.9,149.8,145.3,153z"/>
											<path class="st0" d="M147.4,156.5c-0.4,1.9-0.2,3.6,0.5,4.6c0.6-0.5,1.2-1.2,1.7-2c0.5-0.8,0.8-1.8,1-2.7
												c0.3-1.9-0.1-3.6-1-4.5c-0.5,0.5-1,1.2-1.4,2C147.9,154.7,147.6,155.6,147.4,156.5z"/>
										</g>
										<g>
											<path d="M156.1,165.7c-3.9,0.5-6.6-1.3-7.7-3.9c2.6-2.7,6-4.7,9.6-5.5c3.6-0.7,6.7,0.1,8.3,2.5
												C164,162.4,160,165.2,156.1,165.7z"/>
											<path class="st0" d="M152.9,163.1c-2.1,0.2-3.7-0.4-4.5-1.4c0.7-0.5,1.5-0.9,2.4-1.3c0.9-0.4,1.9-0.6,2.9-0.7
												c2-0.2,3.7,0.1,4.6,1c-0.7,0.6-1.5,1.2-2.4,1.6C155,162.7,154,163,152.9,163.1z"/>
										</g>
									</g>
								</g>
								<g>
									<g>
										<g>
											<path d="M135.1,159.5c-1.2,3.2-1,6.5,0.9,8.9c3.7-1.1,7-4.1,8-7.5c1.1-3.5-0.2-6.6-2.5-8.5
												C138.7,153.8,136.4,156.3,135.1,159.5z"/>
											<path class="st0" d="M136.5,163.5c-0.8,1.9-1,3.6-0.5,4.8c0.8-0.4,1.5-0.9,2.2-1.7c0.7-0.7,1.2-1.6,1.6-2.5
												c0.4-1,0.6-1.9,0.5-2.7c0-0.8-0.2-1.5-0.5-2.1C138.5,160.2,137.3,161.7,136.5,163.5z"/>
										</g>
										<g>
											<path d="M143.3,174.9c-4.1-0.4-6.4-2.9-7-5.8c3.3-2.1,7.2-3.4,11.1-3.4c3.8,0.1,6.8,1.6,8,4.4
												C152.2,173.4,147.4,175.3,143.3,174.9z"/>
											<path class="st0" d="M140.6,171.6c-2.2-0.3-3.7-1.3-4.3-2.5c0.8-0.3,1.7-0.6,2.7-0.7c1-0.1,2.1-0.1,3.1,0
												c1.1,0.1,2,0.4,2.8,0.7c0.8,0.3,1.4,0.8,1.7,1.3C145.1,171.4,142.8,171.9,140.6,171.6z"/>
										</g>
									</g>
								</g>
								<g>
									<g>
										<g>
											<path d="M123.4,163.6c-1,1.5-1.6,3.1-1.8,4.7c-0.2,1.6-0.1,3.2,0.6,4.6c4-0.2,8-2.4,9.9-5.8c0.9-1.6,1.2-3.4,1.1-5
												c-0.2-1.6-0.8-3.1-1.7-4.3C128.2,158.7,125.4,160.6,123.4,163.6z"/>
											<path class="st0" d="M123.8,168c-1.2,1.7-1.9,3.5-1.6,4.8c1.7-0.4,3.6-1.6,4.8-3.4c1.2-1.7,1.5-3.6,1.1-4.9
												C126.6,165.1,125.1,166.3,123.8,168z"/>
										</g>
										<g>
											<path d="M128.1,181.4c-2-0.7-3.5-1.9-4.4-3.2c-0.9-1.4-1.3-2.9-1.3-4.5c3.9-1.3,8.1-1.8,12-0.8c2,0.5,3.6,1.3,4.8,2.4
												c1.2,1.1,2.1,2.5,2.3,4C137.5,181.9,132.1,182.8,128.1,181.4z"/>
											<path class="st0" d="M126.1,177.3c-2.2-0.9-3.4-2.2-3.7-3.6c1.8-0.3,4-0.1,6.1,0.6c2.1,0.8,3.6,1.9,4.1,3.2
												C130.7,178.2,128.2,178.1,126.1,177.3z"/>
										</g>
									</g>
								</g>
							</g>
							<g>
								<path d="M116.1,49.6c1.3,0.2,2.5,0,3.6-0.2c1.1-0.3,2.2-0.7,3-1.4c-0.5-0.9-1.4-1.7-2.4-2.4c-1-0.7-2.3-1-3.7-1.2
									c-1.4-0.1-2.7,0-3.9,0.4c-1.2,0.4-2.1,1.1-2.8,1.8c0.7,0.8,1.6,1.5,2.7,2C113.6,49.1,114.8,49.5,116.1,49.6z"/>
								<path class="st0" d="M119,48.3c1.5,0.2,2.8,0.1,3.7-0.3c-0.7-0.7-1.9-1.3-3.4-1.6c-1.5-0.2-2.9,0-3.7,0.5
									C116.3,47.5,117.6,48.1,119,48.3z"/>
							</g>
						</g>
						<g>
							<path d="M109.9,173.8c0,0,0.7,0,2.1-0.1c0.7,0,1.6-0.1,2.6-0.1c0.5,0,1.1-0.1,1.6-0.1c0.6-0.1,1.2-0.1,1.8-0.2
								c5.2-0.6,12.6-2.3,20.6-6.5c4-2.1,8.1-4.7,12-8.1c2-1.7,3.8-3.6,5.7-5.5c1.8-2,3.5-4.2,5.1-6.5c1.6-2.3,3.1-4.8,4.4-7.3
								c0.7-1.3,1.2-2.6,1.8-3.9c0.5-1.4,1.1-2.7,1.6-4.1c1.9-5.6,3-11.5,3.4-17.5c0.3-6-0.2-12-1.6-17.8c-0.3-1.4-0.7-2.9-1.1-4.3
								c-0.5-1.4-0.9-2.8-1.4-4.1c-1-2.7-2.3-5.3-3.6-7.8c-2.7-4.9-5.9-9.4-9.5-13.1c-3.5-3.8-7.3-6.9-11.1-9.4
								c-7.5-5-14.7-7.5-19.8-8.7c-0.6-0.2-1.2-0.3-1.8-0.4c-0.6-0.1-1.1-0.2-1.6-0.3c-1-0.2-1.9-0.3-2.6-0.4
								c-1.4-0.2-2.1-0.3-2.1-0.3s0.7,0.1,2.1,0.3c0.7,0.1,1.6,0.2,2.6,0.4c0.5,0.1,1,0.2,1.6,0.3c0.6,0.1,1.2,0.3,1.8,0.4
								c5.1,1.1,12.4,3.6,20,8.5c3.8,2.5,7.6,5.6,11.2,9.3c3.6,3.7,6.9,8.2,9.7,13.1c1.4,2.5,2.7,5.1,3.7,7.8c0.6,1.3,1,2.8,1.5,4.2
								c0.4,1.4,0.9,2.8,1.2,4.3c1.4,5.8,2,11.9,1.8,18c-0.3,6.1-1.3,12.1-3.3,17.8c-0.4,1.4-1,2.8-1.5,4.2c-0.6,1.4-1.2,2.7-1.8,4
								c-1.3,2.7-2.8,5.2-4.4,7.5c-1.6,2.4-3.4,4.6-5.2,6.7c-1.9,2-3.7,4-5.7,5.7c-3.9,3.5-8.1,6.3-12.2,8.5
								c-8.2,4.3-15.8,6.2-21.1,6.9c-0.7,0.1-1.3,0.2-1.9,0.3c-0.6,0.1-1.2,0.1-1.7,0.1c-1,0.1-1.9,0.2-2.7,0.2
								c-1.4,0-2.2,0.1-2.2,0.1L109.9,173.8z"/>
						</g>
					</g>
				</g>
			</g>
			<g>
				<g>
					<g>
						<g>
							<g>
								<g>
									<g>
										<g>
											<path d="M83.6,44.8c-1.4,1.5-1.6,3.2-0.7,4.5c1.1-0.2,2.2-0.5,3.1-1c1-0.5,1.9-1.1,2.6-1.8c1.5-1.4,1.9-3,1.2-4.4
												c-0.6,0-1.2,0.1-1.8,0.3c-0.6,0.2-1.2,0.4-1.7,0.6C85.3,43.4,84.4,44.1,83.6,44.8z"/>
											<path class="st0" d="M83.8,46.9c-0.8,0.9-1,1.7-0.9,2.4c0.9-0.3,1.9-0.9,2.7-1.8c0.8-0.9,1.1-1.7,1-2.3
												C85.6,45.4,84.5,46.1,83.8,46.9z"/>
										</g>
										<g>
											<path d="M86,53c-1.8-0.6-2.9-1.9-3-3.4c1-0.5,2.1-0.7,3.2-0.8c1.1-0.1,2.1,0.1,3.1,0.4c1.9,0.7,2.7,2.2,2.6,3.6
												c-0.5,0.2-1,0.3-1.5,0.3c-0.5,0.1-1,0.2-1.5,0.2C87.9,53.5,86.9,53.4,86,53z"/>
											<path class="st0" d="M85,51.2c-1.1-0.3-1.8-0.9-2-1.5c0.9-0.3,2.1-0.3,3.2,0.1c1.1,0.3,1.7,1,1.9,1.6
												C87.2,51.5,86.1,51.5,85,51.2z"/>
										</g>
									</g>
								</g>
								<g>
									<g>
										<g>
											<path d="M75.3,47.6c-1.3,1.8-1.2,3.6-0.1,4.8c2.2-0.7,4.2-2,5.6-3.7c1.3-1.7,1.5-3.5,0.7-4.7c-1.2,0.3-2.4,0.7-3.5,1.4
												C76.9,45.9,75.9,46.7,75.3,47.6z"/>
											<path class="st0" d="M75.7,49.8c-0.7,1-0.8,2-0.6,2.6c0.9-0.4,1.8-1.3,2.5-2.2c0.7-1,0.9-1.9,0.7-2.6
												C77.5,48,76.4,48.7,75.7,49.8z"/>
										</g>
										<g>
											<path d="M78.9,55.8c-1.9-0.4-3.3-1.6-3.5-3.1c1.9-1.2,4.4-1.8,6.4-1.2c2,0.5,3.1,1.9,3.2,3.4c-0.9,0.5-2,0.8-3,0.9
												C80.9,56.1,79.9,56,78.9,55.8z"/>
											<path class="st0" d="M77.6,54c-1.1-0.2-2-0.7-2.3-1.3c0.9-0.4,2.1-0.6,3.3-0.3c1.1,0.2,1.9,0.8,2.2,1.4
												C80,54.2,78.8,54.2,77.6,54z"/>
										</g>
									</g>
								</g>
								<g>
									<g>
										<g>
											<path d="M67.1,51.6c-1,2.1-0.7,3.9,0.6,5c0.5-0.3,1.1-0.6,1.6-0.9c0.5-0.3,1-0.7,1.4-1.1c0.9-0.8,1.7-1.7,2.2-2.7
												c1.1-2,1.1-3.8,0-5c-1.3,0.4-2.4,1.1-3.4,1.9C68.4,49.6,67.6,50.6,67.1,51.6z"/>
											<path class="st0" d="M67.8,53.8c-0.5,1.2-0.6,2.2-0.2,2.8c0.9-0.6,1.7-1.6,2.3-2.7c0.6-1.1,0.7-2.1,0.4-2.8
												C69.3,51.7,68.4,52.7,67.8,53.8z"/>
										</g>
										<g>
											<path d="M72,59.7c-2.1-0.1-3.6-1.2-4.1-2.7c0.5-0.4,0.9-0.7,1.5-1c0.5-0.3,1.1-0.5,1.6-0.7c1.1-0.4,2.3-0.5,3.3-0.4
												c2.1,0.2,3.4,1.6,3.8,3.2c-0.9,0.6-1.9,1.1-2.9,1.3C74.1,59.6,73,59.8,72,59.7z"/>
											<path class="st0" d="M70.4,58c-1.2,0-2.1-0.4-2.5-1c0.9-0.6,2.1-0.9,3.4-0.8c1.2,0.1,2.1,0.5,2.4,1.1
												C72.8,57.8,71.6,58,70.4,58z"/>
										</g>
									</g>
								</g>
								<g>
									<g>
										<g>
											<path d="M59.1,57c-0.8,2.3-0.1,4.1,1.3,5.1c2-1.4,3.8-3.4,4.7-5.6c0.9-2.2,0.6-4.1-0.7-5.2C62,52.5,59.9,54.7,59.1,57z"
												/>
											<path class="st0" d="M60.2,59.1c-0.4,1.3-0.2,2.3,0.2,2.9c0.4-0.4,0.8-0.8,1.1-1.4c0.3-0.5,0.6-1.1,0.8-1.7
												c0.4-1.3,0.4-2.3,0-2.9C61.5,56.7,60.7,57.9,60.2,59.1z"/>
										</g>
										<g>
											<path d="M65.4,64.7c-2.2,0.1-3.9-0.7-4.7-2.2c1.6-1.9,4.1-3.1,6.3-3.1c2.3,0,3.8,1.2,4.3,2.8
												C69.8,63.5,67.6,64.5,65.4,64.7z"/>
											<path class="st0" d="M63.5,63.1c-1.2,0.1-2.3-0.1-2.8-0.7c0.4-0.4,0.9-0.7,1.5-0.9c0.6-0.2,1.2-0.4,1.9-0.4
												c1.3-0.1,2.2,0.3,2.7,0.9C66,62.6,64.8,63,63.5,63.1z"/>
										</g>
									</g>
								</g>
								<g>
									<g>
										<g>
											<path d="M51.7,63.7c-0.4,2.5,0.5,4.3,2.2,5.1c0.5-0.4,0.9-0.9,1.3-1.4c0.4-0.5,0.8-1,1.2-1.6c0.7-1.1,1.2-2.2,1.5-3.5
												c0.6-2.4,0-4.3-1.5-5.3C53.9,58.6,52.1,61.2,51.7,63.7z"/>
											<path class="st0" d="M53.2,65.8c-0.2,1.4,0.1,2.5,0.7,3c0.4-0.4,0.7-1,0.9-1.6c0.3-0.6,0.5-1.2,0.6-1.9
												c0.2-1.4,0-2.5-0.5-3C54.1,63.1,53.4,64.4,53.2,65.8z"/>
										</g>
										<g>
											<path d="M59.4,70.7c-2.2,0.5-4.1-0.1-5.2-1.6c0.4-0.5,0.8-1.1,1.2-1.5c0.5-0.5,1-0.9,1.5-1.2c1-0.8,2.2-1.2,3.4-1.4
												c2.3-0.3,4.1,0.7,4.9,2.3C63.7,68.9,61.7,70.3,59.4,70.7z"/>
											<path class="st0" d="M57.2,69.4c-1.3,0.3-2.4,0.2-3-0.3c0.4-0.4,0.9-0.8,1.4-1.2c0.6-0.3,1.2-0.6,1.9-0.7
												c1.3-0.3,2.4,0,2.9,0.5C59.7,68.5,58.5,69.1,57.2,69.4z"/>
										</g>
									</g>
								</g>
								<g>
									<g>
										<g>
											<path d="M45,71.7c0,2.7,1.3,4.4,3.1,4.9c1.7-2.1,2.9-4.7,3.1-7.3c0.2-2.6-0.7-4.5-2.4-5.3c-1.1,1-2,2.3-2.7,3.6
												C45.5,69,45.1,70.4,45,71.7z"/>
											<path class="st0" d="M47,73.7c0,1.5,0.5,2.5,1.2,3c0.6-1,1-2.5,1-3.9c0-1.4-0.4-2.6-1-3.1C47.5,70.8,46.9,72.2,47,73.7z"
												/>
										</g>
										<g>
											<path d="M54.2,77.9c-2.2,0.8-4.3,0.5-5.6-0.9c1.1-2.5,3.2-4.5,5.6-5.2c2.4-0.7,4.4,0.1,5.5,1.6
												C58.4,75.4,56.5,77.1,54.2,77.9z"/>
											<path class="st0" d="M51.7,76.8c-1.3,0.5-2.4,0.5-3.1,0.1c0.7-1,1.8-2,3.1-2.4c1.3-0.5,2.4-0.4,3.1,0.1
												C54.1,75.5,53,76.3,51.7,76.8z"/>
										</g>
									</g>
								</g>
								<g>
									<g>
										<g>
											<path d="M39.5,81.2c0.4,2.8,2,4.3,4,4.6c1.4-2.4,2.2-5.3,2-8c-0.2-2.7-1.4-4.5-3.4-5.1c-1,1.2-1.7,2.7-2.2,4.1
												C39.5,78.3,39.2,79.8,39.5,81.2z"/>
											<path class="st0" d="M41.8,82.9c0.2,1.5,0.9,2.5,1.7,2.9c0.5-1.2,0.6-2.7,0.4-4.2c-0.2-1.5-0.8-2.6-1.5-3
												C41.8,79.8,41.5,81.4,41.8,82.9z"/>
										</g>
										<g>
											<path d="M50,86c-2.2,1.2-4.4,1.2-6-0.1c0.8-2.7,2.6-5.2,5-6.3c2.3-1.1,4.5-0.6,5.9,0.8c-0.5,1.1-1.1,2.2-2,3.1
												C52.1,84.6,51.1,85.4,50,86z"/>
											<path class="st0" d="M47.3,85.3C46,86,44.8,86.2,44,86c0.5-1.1,1.5-2.3,2.8-3c1.3-0.7,2.5-0.8,3.3-0.4
												C49.5,83.6,48.5,84.6,47.3,85.3z"/>
										</g>
									</g>
								</g>
								<g>
									<g>
										<g>
											<path d="M35.3,91.8c0.9,2.8,2.9,4.1,5,4c0.5-1.4,0.9-2.8,1-4.3c0.2-1.4,0.1-2.9-0.3-4.3c-0.6-2.7-2.3-4.5-4.4-4.7
												C35,85.4,34.4,89,35.3,91.8z"/>
											<path class="st0" d="M38,93.2c0.5,1.5,1.4,2.4,2.3,2.7c0.2-1.3,0.2-2.9-0.3-4.4c-0.5-1.5-1.2-2.5-2.1-2.9
												C37.4,90,37.5,91.7,38,93.2z"/>
										</g>
										<g>
											<path d="M47.1,95c-2.1,1.5-4.3,1.9-6.2,1c0.1-1.5,0.6-2.9,1.3-4.2c0.7-1.3,1.6-2.3,2.8-3.1c2.3-1.5,4.6-1.3,6.3-0.1
												C50.5,91.2,49.1,93.5,47.1,95z"/>
											<path class="st0" d="M44.1,94.8c-1.2,0.9-2.3,1.4-3.2,1.2c0.3-1.3,1.2-2.6,2.4-3.5c1.2-0.9,2.4-1.2,3.3-0.9
												C46.1,92.6,45.3,93.9,44.1,94.8z"/>
										</g>
									</g>
								</g>
								<g>
									<g>
										<g>
											<path d="M32.8,103.5c1.5,2.7,3.7,3.7,5.9,3.3c0.6-3,0.4-6.2-0.8-8.9c-1.2-2.7-3.1-4.2-5.4-4.1
												C31.3,97,31.4,100.8,32.8,103.5z"/>
											<path class="st0" d="M35.8,104.5c0.8,1.5,1.9,2.3,2.9,2.3c0.1-1.4-0.3-3-1.1-4.4c-0.8-1.4-1.8-2.4-2.7-2.6
												C34.7,101.2,35,103,35.8,104.5z"/>
										</g>
										<g>
											<path d="M45.6,104.8c-1.8,1.9-4.2,2.7-6.3,2.1c-0.2-3,0.8-6.2,2.9-8.1c2.1-1.9,4.5-2.1,6.5-1.1
												C48.5,100.2,47.5,102.8,45.6,104.8z"/>
											<path class="st0" d="M42.5,105c-1,1.2-2.2,1.8-3.2,1.8c0.1-1.3,0.7-2.9,1.8-4c1.1-1.2,2.3-1.7,3.2-1.5
												C44.2,102.5,43.5,103.9,42.5,105z"/>
										</g>
									</g>
								</g>
								<g>
									<g>
										<g>
											<path d="M32.3,116c0.5,0.6,1,1.2,1.5,1.6c0.6,0.4,1.1,0.7,1.7,0.9c1.2,0.4,2.3,0.3,3.4-0.1c0-0.8-0.1-1.6-0.1-2.4
												c-0.1-0.8-0.3-1.6-0.5-2.4c-0.4-1.5-1-3-1.9-4.3c-1.7-2.6-4-3.8-6.3-3.3C29.6,109.6,30.3,113.5,32.3,116z"/>
											<path class="st0" d="M35.6,116.4c1.1,1.4,2.4,2,3.4,1.9c-0.2-1.4-0.8-3-1.9-4.4c-1-1.4-2.2-2.1-3.2-2.2
												c0,0.8,0.2,1.6,0.5,2.4C34.7,115,35.1,115.8,35.6,116.4z"/>
										</g>
										<g>
											<path d="M45.8,115c-0.4,0.6-0.8,1.1-1.3,1.5c-0.5,0.4-1,0.8-1.5,1.1c-1,0.6-2.2,0.8-3.4,0.7c-0.2-0.8-0.3-1.6-0.4-2.4
												c0-0.8,0-1.6,0.1-2.4c0.3-1.5,0.8-3,1.8-4.2c1.8-2.3,4.3-2.9,6.5-2.3C48,109.8,47.4,112.7,45.8,115z"/>
											<path class="st0" d="M42.6,115.8c-0.9,1.4-1.9,2.3-2.9,2.4c-0.2-1.4,0.3-3.1,1.1-4.5c0.9-1.4,2.1-2.1,3.1-2.2
												c0,0.6-0.1,1.4-0.4,2.1C43.4,114.4,43.1,115.1,42.6,115.8z"/>
										</g>
									</g>
								</g>
								<g>
									<g>
										<g>
											<path d="M34.2,129c2.5,2.3,5.3,2.4,7.4,1.1c-0.6-3.3-2-6.5-4.2-8.8c-2.2-2.3-4.8-3.2-7.1-2.2
												C30.1,122.8,31.7,126.7,34.2,129z"/>
											<path class="st0" d="M37.7,128.8c1.4,1.2,2.8,1.6,3.9,1.3c-0.3-0.7-0.6-1.4-1.1-2.1c-0.5-0.7-1.1-1.4-1.7-2
												c-1.3-1.2-2.7-1.8-3.8-1.6C35.3,125.9,36.2,127.6,37.7,128.8z"/>
										</g>
										<g>
											<path d="M47.9,125.3c-1.2,2.6-3.3,4.4-5.8,4.5c-1.4-3-1.5-6.7-0.1-9.4c1.5-2.7,3.9-3.8,6.4-3.6
												C49.2,119.7,49.2,122.7,47.9,125.3z"/>
											<path class="st0" d="M44.8,126.8c-0.6,1.6-1.6,2.7-2.6,3c-0.2-0.7-0.3-1.5-0.2-2.3c0-0.8,0.2-1.7,0.6-2.5
												c0.7-1.6,1.8-2.5,2.8-2.8C45.6,123.6,45.4,125.3,44.8,126.8z"/>
										</g>
									</g>
								</g>
								<g>
									<g>
										<g>
											<path d="M38.6,142c3.1,1.8,5.9,1.3,7.8-0.4c-1.2-3.2-3.3-6.2-6.1-8.2c-2.7-1.9-5.6-2.3-7.8-0.9
												C33.2,136.5,35.6,140.2,38.6,142z"/>
											<path class="st0" d="M42.2,141.1c1.7,0.9,3.2,1,4.2,0.5c-0.4-0.7-0.9-1.3-1.5-2c-0.6-0.6-1.4-1.2-2.2-1.7
												c-1.6-0.9-3.2-1.3-4.2-0.9c0.3,0.8,0.8,1.5,1.5,2.2C40.6,140,41.3,140.6,42.2,141.1z"/>
										</g>
										<g>
											<path d="M52.1,135.4c-0.7,2.9-2.5,5.1-5,5.8c-2.1-2.8-2.9-6.5-1.9-9.6c1-3.1,3.3-4.6,5.9-4.9
												C52.3,129.4,52.8,132.5,52.1,135.4z"/>
											<path class="st0" d="M49.1,137.6c-0.4,1.7-1.1,3.1-2.1,3.6c-0.4-0.7-0.6-1.5-0.7-2.3c-0.1-0.8-0.1-1.8,0.1-2.6
												c0.4-1.8,1.3-3,2.4-3.4c0.2,0.7,0.4,1.4,0.5,2.2C49.4,135.9,49.3,136.7,49.1,137.6z"/>
										</g>
									</g>
								</g>
								<g>
									<g>
										<g>
											<path d="M45.8,154.4c3.5,1.2,6.4,0.1,8-2.1c-1.9-3-4.7-5.7-7.9-7.1c-3.2-1.4-6.3-1.2-8.2,0.7
												C39.1,149.9,42.3,153.2,45.8,154.4z"/>
											<path class="st0" d="M49.3,152.7c1.9,0.6,3.6,0.3,4.5-0.4c-0.5-0.6-1.2-1.2-2-1.7c-0.8-0.5-1.7-0.9-2.6-1.2
												c-1.8-0.6-3.5-0.6-4.5,0C45.7,150.8,47.4,152.1,49.3,152.7z"/>
										</g>
										<g>
											<path d="M58.4,144.8c-0.2,3.2-1.5,5.8-4,7c-2.7-2.4-4.3-6.1-3.9-9.4c0.4-3.4,2.5-5.4,5.1-6.2
												C57.4,138.7,58.5,141.7,58.4,144.8z"/>
											<path class="st0" d="M55.8,147.7c0,1.9-0.5,3.4-1.4,4.2c-0.5-0.6-0.9-1.4-1.2-2.2c-0.3-0.9-0.5-1.8-0.4-2.7
												c0.1-1.9,0.8-3.3,1.7-4C55.3,144.1,55.7,145.8,55.8,147.7z"/>
										</g>
									</g>
								</g>
								<g>
									<g>
										<g>
											<path d="M55.9,165.7c3.9,0.5,6.6-1.3,7.7-3.9c-2.6-2.7-6-4.7-9.6-5.5c-3.6-0.7-6.7,0.1-8.3,2.5
												C48,162.4,52,165.2,55.9,165.7z"/>
											<path class="st0" d="M59.1,163.1c2.1,0.2,3.7-0.4,4.5-1.4c-0.7-0.5-1.5-0.9-2.4-1.3c-0.9-0.4-1.9-0.6-2.9-0.7
												c-2-0.2-3.7,0.1-4.6,1c0.7,0.6,1.5,1.2,2.4,1.6C57,162.7,58,163,59.1,163.1z"/>
										</g>
										<g>
											<path d="M66.7,153c0.5,3.2-0.4,6.3-2.6,8.1c-3.3-1.8-5.7-5.2-5.9-8.7c-0.3-3.5,1.5-6.1,4-7.4
												C64.5,147,66.2,149.8,66.7,153z"/>
											<path class="st0" d="M64.6,156.5c0.4,1.9,0.2,3.6-0.5,4.6c-0.6-0.5-1.2-1.2-1.7-2c-0.5-0.8-0.8-1.8-1-2.7
												c-0.3-1.9,0.1-3.6,1-4.5c0.5,0.5,1,1.2,1.4,2C64.1,154.7,64.4,155.6,64.6,156.5z"/>
										</g>
									</g>
								</g>
								<g>
									<g>
										<g>
											<path d="M68.7,174.9c4.1-0.4,6.4-2.9,7-5.8c-3.3-2.1-7.2-3.4-11.1-3.4c-3.8,0.1-6.8,1.6-8,4.4
												C59.8,173.4,64.6,175.3,68.7,174.9z"/>
											<path class="st0" d="M71.4,171.6c2.2-0.3,3.7-1.3,4.3-2.5c-0.8-0.3-1.7-0.6-2.7-0.7c-1-0.1-2.1-0.1-3.1,0
												c-1.1,0.1-2,0.4-2.8,0.7c-0.8,0.3-1.4,0.8-1.7,1.3C66.9,171.4,69.2,171.9,71.4,171.6z"/>
										</g>
										<g>
											<path d="M76.9,159.5c1.2,3.2,1,6.5-0.9,8.9c-3.7-1.1-7-4.1-8-7.5c-1.1-3.5,0.2-6.6,2.5-8.5
												C73.3,153.8,75.7,156.3,76.9,159.5z"/>
											<path class="st0" d="M75.5,163.5c0.8,1.9,1,3.6,0.5,4.8c-0.8-0.4-1.5-0.9-2.2-1.7c-0.7-0.7-1.2-1.6-1.6-2.5
												c-0.4-1-0.6-1.9-0.5-2.7c0-0.8,0.2-1.5,0.5-2.1C73.5,160.2,74.7,161.7,75.5,163.5z"/>
										</g>
									</g>
								</g>
								<g>
									<g>
										<g>
											<path d="M83.9,181.4c2-0.7,3.5-1.9,4.4-3.2c0.9-1.4,1.3-2.9,1.3-4.5c-3.9-1.3-8.1-1.8-12-0.8c-2,0.5-3.6,1.3-4.8,2.4
												c-1.2,1.1-2.1,2.5-2.3,4C74.5,181.9,79.9,182.8,83.9,181.4z"/>
											<path class="st0" d="M85.9,177.3c2.2-0.9,3.4-2.2,3.7-3.6c-1.8-0.3-4-0.1-6.1,0.6c-2.1,0.8-3.6,1.9-4.1,3.2
												C81.3,178.2,83.8,178.1,85.9,177.3z"/>
										</g>
										<g>
											<path d="M88.6,163.6c1,1.5,1.6,3.1,1.8,4.7c0.2,1.6,0.1,3.2-0.6,4.6c-4-0.2-8-2.4-9.9-5.8c-0.9-1.6-1.2-3.4-1.1-5
												c0.2-1.6,0.8-3.1,1.7-4.3C83.8,158.7,86.6,160.6,88.6,163.6z"/>
											<path class="st0" d="M88.2,168c1.2,1.7,1.9,3.5,1.6,4.8c-1.7-0.4-3.6-1.6-4.8-3.4c-1.2-1.7-1.5-3.6-1.1-4.9
												C85.4,165.1,87,166.3,88.2,168z"/>
										</g>
									</g>
								</g>
							</g>
							<g>
								<path d="M95.4,44.1c-1.4,0.2-2.7,0.6-3.7,1.2c-1.1,0.7-1.9,1.5-2.4,2.4c0.9,0.6,1.9,1.1,3,1.4c1.1,0.3,2.4,0.4,3.7,0.2
									c1.3-0.1,2.5-0.5,3.5-1c1.1-0.5,2-1.2,2.7-2c-0.7-0.8-1.7-1.4-2.9-1.8C98.1,44.1,96.8,44,95.4,44.1z"/>
								<path class="st0" d="M92.6,46.1c-1.5,0.2-2.8,0.9-3.4,1.6c0.9,0.4,2.3,0.5,3.7,0.3c1.5-0.2,2.7-0.8,3.5-1.4
									C95.6,46.1,94.2,45.9,92.6,46.1z"/>
							</g>
						</g>
						<g>
							<path d="M102.1,175.2c0,0-0.8,0-2.2-0.1c-0.7,0-1.6-0.1-2.6-0.2c-0.5,0-1.1-0.1-1.7-0.1c-0.6-0.1-1.2-0.2-1.9-0.2
								c-5.3-0.7-12.8-2.4-21-6.7c-4-2.1-8.2-4.9-12.2-8.3c-2-1.7-3.9-3.6-5.7-5.6c-1.8-2.1-3.6-4.3-5.2-6.6
								c-1.6-2.4-3.1-4.9-4.4-7.5c-0.7-1.3-1.3-2.7-1.9-4c-0.5-1.4-1.1-2.8-1.6-4.2c-2-5.7-3.1-11.7-3.4-17.8
								c-0.2-6.1,0.3-12.2,1.6-18c0.3-1.5,0.8-2.9,1.2-4.3c0.5-1.4,0.9-2.8,1.5-4.2c1-2.8,2.3-5.4,3.6-7.9c2.8-5,6.1-9.5,9.7-13.3
								c3.6-3.8,7.4-7,11.2-9.5c7.6-5,14.9-7.5,20.1-8.7c0.6-0.2,1.3-0.3,1.8-0.4c0.6-0.1,1.1-0.2,1.6-0.3c1-0.2,1.9-0.3,2.6-0.4
								c1.4-0.2,2.2-0.3,2.2-0.3s-0.8,0.1-2.2,0.3c-0.7,0.1-1.6,0.2-2.6,0.4c-0.5,0.1-1.1,0.2-1.6,0.3c-0.6,0.1-1.2,0.3-1.8,0.4
								c-5.1,1.2-12.4,3.8-20,8.9c-3.8,2.5-7.6,5.7-11.1,9.5c-3.5,3.8-6.8,8.3-9.4,13.2c-1.3,2.5-2.5,5.1-3.5,7.8
								c-0.5,1.3-0.9,2.8-1.4,4.1c-0.4,1.4-0.8,2.8-1.1,4.3c-1.3,5.8-1.7,11.8-1.4,17.8c0.4,6,1.5,11.9,3.5,17.5
								c0.4,1.4,1.1,2.7,1.6,4.1c0.6,1.3,1.2,2.7,1.9,3.9c1.3,2.6,2.8,5,4.4,7.3c1.6,2.3,3.4,4.4,5.1,6.4c1.9,2,3.7,3.8,5.7,5.5
								c3.9,3.3,8,6,11.9,8c8,4.1,15.3,5.7,20.4,6.3c0.6,0.1,1.3,0.1,1.8,0.2c0.6,0,1.1,0.1,1.6,0.1c1,0.1,1.9,0.1,2.6,0.1
								c1.4,0,2.1,0,2.1,0L102.1,175.2z"/>
						</g>
					</g>
				</g>
			</g>
		</g>
		<polygon points="106,161.7 108.5,169.4 116.6,169.4 110,174.1 112.5,181.8 106,177.1 99.5,181.8 102,174.1 95.4,169.4 
			103.5,169.4 		"/>
	</g>
</g>
<g id="sun">
</g>
<g id="flowers">
	<g>
		<g>
			<g>
				<polyline points="104,143.3 98,124 79.6,132.4 89.4,114.6 70.3,108 89.4,101.4 79.6,83.6 98,92 104,72.8 				"/>
				<polyline class="st1" points="104,143.3 98,124 79.6,132.4 89.4,114.6 70.3,108 89.4,101.4 79.6,83.6 98,92 104,72.8 				"/>
			</g>
			<radialGradient id="SVGID_1_" cx="103.375" cy="106.75" r="16.4493" fx="119.5" fy="106.75" gradientUnits="userSpaceOnUse">
				<stop  offset="0" style="stop-color:#FFFFFF"/>
				<stop  offset="0.99" style="stop-color:#000000"/>
			</radialGradient>
			<path class="st2" d="M104,124.3c-9.5,0-17.3-7.7-17.3-17.3s7.7-17.3,17.3-17.3"/>
		</g>
		<g>
			<g>
				<path class="st0" d="M106.6,80.3c15.5,0,28.1,12.2,28.1,27.2s-12.6,27.2-28.1,27.2"/>
				<g>
					<g>
						<g>
							<g>
								<path d="M107,134.6c0.7,2.6,1.8,4.9,3,6.5c1.2,1.6,2.6,2.5,3.5,2.4c0.9-0.1,1.9-1.5,2.6-3.4c0.2-0.5,0.3-1,0.4-1.6
									c0.1-0.6,0.2-1.2,0.3-1.8c0.1-1.2,0.1-2.6,0-3.9c-0.2-2.7-1.4-4.8-2.6-6.2c-0.6-0.7-1.3-1.2-1.9-1.5c-0.7-0.3-1.3-0.5-2-0.3
									c-0.7,0.1-1.3,0.4-1.8,1c-0.5,0.5-0.9,1.2-1.3,2.1C106.7,129.6,106.3,132,107,134.6z"/>
							</g>
							<g>
								<path d="M117.5,132.4c1.6,2.1,3.4,3.9,5.2,5c1.8,1.1,3.3,1.3,4.1,0.9c0.8-0.4,1.2-2.1,1.2-4.1c0-1-0.2-2.2-0.6-3.4
									c-0.3-1.2-0.8-2.5-1.4-3.7c-1.2-2.4-3.1-4-4.7-4.8c-0.8-0.4-1.6-0.7-2.3-0.7c-0.7-0.1-1.4,0.1-1.9,0.5
									c-0.6,0.3-1,0.9-1.3,1.6c-0.3,0.6-0.4,1.5-0.4,2.4C115.5,128,116,130.2,117.5,132.4z"/>
							</g>
							<g>
								<path d="M126.5,126.5c2.3,1.4,4.7,2.3,6.7,2.6c2,0.3,3.6,0,4.2-0.7c0.6-0.7,0.4-2.4-0.5-4.3c-0.9-1.9-2.5-4-4.6-5.8
									c-2.1-1.8-4.4-2.4-6.2-2.6c-0.9-0.1-1.8,0-2.4,0.2c-0.7,0.2-1.3,0.6-1.6,1.2c-0.4,0.5-0.6,1.2-0.5,1.9
									c0,0.7,0.2,1.5,0.5,2.4C122.9,123.2,124.3,125.1,126.5,126.5z"/>
							</g>
							<g>
								<path d="M132.6,117.7c2.6,0.4,5.2,0.3,7.2-0.2c1.9-0.5,3.3-1.5,3.6-2.4c0.2-0.9-0.6-2.4-2.1-3.8c-1.5-1.4-3.9-2.7-6.5-3.5
									c-2.6-0.8-5-0.5-6.8,0.1c-0.9,0.3-1.6,0.7-2.1,1.2c-0.5,0.5-0.9,1-1,1.7c-0.1,0.7-0.1,1.3,0.3,1.9c0.3,0.6,0.8,1.3,1.4,1.9
									C128,116,130,117.3,132.6,117.7z"/>
							</g>
							<g>
								<path d="M134.7,107.1c2.6-0.7,4.9-1.8,6.5-3.1c1.6-1.3,2.4-2.7,2.3-3.6c-0.1-0.9-1.5-1.9-3.4-2.6c-1.9-0.7-4.6-0.9-7.3-0.6
									c-2.7,0.3-4.8,1.5-6.1,2.8c-0.7,0.6-1.2,1.3-1.5,1.9c-0.3,0.6-0.4,1.3-0.3,1.9c0.1,0.7,0.4,1.2,1,1.7
									c0.5,0.5,1.2,0.9,2.1,1.2C129.7,107.4,132.1,107.8,134.7,107.1z"/>
							</g>
							<g>
								<path d="M132.4,96.6c2.1-1.6,3.8-3.6,4.8-5.4c0.9-1.8,1.2-3.4,0.7-4.2c-0.5-0.8-2.1-1.2-4.2-1c-2.1,0.2-4.6,1-7,2.3
									c-1.2,0.7-2.2,1.5-2.9,2.4c-0.7,0.9-1.3,1.7-1.7,2.6c-0.4,0.9-0.6,1.7-0.6,2.4c0,0.7,0.1,1.4,0.6,1.9
									c0.4,0.6,0.9,0.9,1.6,1.2c0.7,0.2,1.5,0.3,2.4,0.3C128,98.9,130.3,98.3,132.4,96.6z"/>
							</g>
							<g>
								<path d="M126.1,87.9c1.3-2.3,2.1-4.8,2.3-6.8c0.2-2-0.2-3.6-0.9-4.1c-0.8-0.5-2.4-0.3-4.2,0.7c-1.9,1-3.9,2.7-5.6,4.8
									c-1.7,2.2-2.3,4.5-2.4,6.3c0,0.9,0.1,1.8,0.3,2.4c0.3,0.6,0.6,1.2,1.3,1.6c0.6,0.4,1.2,0.5,2,0.5c0.7-0.1,1.5-0.2,2.3-0.6
									C122.9,91.7,124.8,90.2,126.1,87.9z"/>
							</g>
							<g>
								<path d="M117,82.2c0.3-2.6,0.2-5.2-0.4-7.2c-0.6-1.9-1.5-3.3-2.4-3.5c-0.9-0.2-2.3,0.7-3.7,2.2c-1.4,1.6-2.6,3.9-3.4,6.5
									c-0.8,2.6-0.5,5,0.1,6.8c0.3,0.9,0.7,1.6,1.2,2.1c0.5,0.5,1.1,0.9,1.8,1c0.7,0.1,1.3,0.1,2-0.3c0.7-0.3,1.3-0.8,1.9-1.5
									C115.4,86.9,116.6,84.9,117,82.2z"/>
							</g>
						</g>
					</g>
				</g>
			</g>
			
				<radialGradient id="SVGID_2_" cx="105.3282" cy="106.9064" r="17.3519" fx="89.9999" fy="106.7719" gradientUnits="userSpaceOnUse">
				<stop  offset="0" style="stop-color:#FFFFFF"/>
				<stop  offset="1" style="stop-color:#000000"/>
			</radialGradient>
			<path class="st3" d="M106,123.1c8.9,0,16.2-7.2,16.2-16.2s-7.2-16.2-16.2-16.2"/>
		</g>
	</g>
</g>
<g id="sunflowers">
	<text transform="matrix(1 0 0 1 74.6665 194.333)" class="st4 st5">Sunflowers</text>
</g>
</svg>
